<?xml version="1.0" encoding="UTF-8" standalone="no"?>
<!-- Created with Inkscape (http://www.inkscape.org/) -->

<svg
   width="27.980785mm"
   height="24.345753mm"
   viewBox="0 0 27.980785 24.345753"
   version="1.1"
   id="svg1"
   xml:space="preserve"
   xmlns="http://www.w3.org/2000/svg"
   xmlns:svg="http://www.w3.org/2000/svg"><defs
     id="defs1" /><g
     id="layer3"
     transform="translate(583.30891,-197.06428)"><g
       id="g64"
       transform="translate(-207.43233,-33.981034)"><g
         id="g58"
         transform="translate(-36.522945,-2.7424246)"
         style="fill:#e33ae4;fill-opacity:1"><path
           style="fill:#fd742e;fill-opacity:1;stroke:none;stroke-width:0.3;stroke-dasharray:none;stroke-opacity:1"
           d="m -319.55652,240.05185 c -0.96002,-0.90082 0.723,-7.1768 3.22939,-6.15123 3.1467,1.28757 -0.90315,7.28011 -3.22939,6.15123 z"
           id="path56" /><path
           style="fill:#fd742e;fill-opacity:1;stroke:none;stroke-width:0.3;stroke-dasharray:none;stroke-opacity:1"
           d="m -318.28212,241.49479 c 0.10484,-1.3123 6.0592,-3.91347 6.82183,-1.31497 0.95747,3.26233 -6.25235,3.83716 -6.82183,1.31497 z"
           id="path57" /><path
           style="fill:#fb512d;fill-opacity:1;stroke:none;stroke-width:0.3;stroke-dasharray:none;stroke-opacity:1"
           d="m -318.394,240.71067 c -0.57034,-1.18652 3.2637,-6.43253 5.23124,-4.57173 2.47019,2.33618 -3.469,6.46389 -5.23124,4.57173 z"
           id="path58" /></g><g
         id="g61"
         transform="matrix(-0.16869974,0.98566749,0.98566749,0.16869974,-659.7514,521.66103)"
         style="fill:#e33ae4;fill-opacity:1"><path
           style="fill:#fd742e;fill-opacity:1;stroke:none;stroke-width:0.3;stroke-dasharray:none;stroke-opacity:1"
           d="m -319.55652,240.05185 c -0.96002,-0.90082 0.723,-7.1768 3.22939,-6.15123 3.1467,1.28757 -0.90315,7.28011 -3.22939,6.15123 z"
           id="path59" /><path
           style="fill:#fd742e;fill-opacity:1;stroke:none;stroke-width:0.3;stroke-dasharray:none;stroke-opacity:1"
           d="m -318.28212,241.49479 c 0.10484,-1.3123 6.0592,-3.91347 6.82183,-1.31497 0.95747,3.26233 -6.25235,3.83716 -6.82183,1.31497 z"
           id="path60" /><path
           style="fill:#fb512d;fill-opacity:1;stroke:none;stroke-width:0.3;stroke-dasharray:none;stroke-opacity:1"
           d="m -318.394,240.71067 c -0.57034,-1.18652 3.2637,-6.43253 5.23124,-4.57173 2.47019,2.33618 -3.469,6.46389 -5.23124,4.57173 z"
           id="path61" /></g><path
         id="path62"
         style="fill:#fd742e;fill-opacity:1;stroke:none;stroke-width:0.316929"
         d="m -356.84085,248.71828 c -4.54745,4.00072 -10.61438,3.10575 -12.45869,0.75408 -1.84434,-2.35165 -1.20184,-7.86369 3.21677,-11.37186 4.78389,-3.79819 9.79421,-3.00323 11.63854,-0.65157 1.84433,2.35166 1.47425,7.86387 -2.39662,11.26935 z" /><path
         style="fill:#fec342;fill-opacity:1;stroke:none;stroke-width:0.3;stroke-dasharray:none;stroke-opacity:1"
         d="m -369.2508,242.04052 c 1.30936,-0.37862 8.27854,2.40923 6.68948,9.355 1.66595,-0.28193 3.19095,-0.88424 3.66509,-1.25588 0.20505,-1.64033 0.55106,-8.30416 -7.80438,-11.4823 -1.17898,0.73046 -2.2464,2.73153 -2.55019,3.38318 z"
         id="path63" /><path
         style="fill:#fec342;fill-opacity:1;stroke:none;stroke-width:0.3;stroke-dasharray:none;stroke-opacity:1"
         d="m -364.74895,237.16477 c 1.70662,-0.17358 10.22642,3.89578 8.63736,10.84155 1.11491,-1.02521 2.01197,-3.02436 2.20418,-3.60104 0.20505,-1.64033 -1.60187,-6.81762 -6.76636,-8.86803 -0.97394,-0.19222 -3.36131,1.10402 -4.07518,1.62752 z"
         id="path64" /></g></g></svg>
